 <svg width="25" height="25" viewBox="0 0 25 25" fill="none" xmlns="http://www.w3.org/2000/svg"><g clip-path="url(#a)"><path fill-rule="evenodd" clip-rule="evenodd" d="M3.144 13.325c-.148.246-.435.256-.606.025-.078-.105-.13-.23-.207-.335-.653-.906-1.31-1.81-1.967-2.712-.12-.166-.247-.326-.364-.48L4.323 3.25c.16.08.33.166.501.248 1.15.544 2.332.984 3.588 1.187.767.123 1.111.12 2.057-.004-.061.1-.093.196-.159.246-.222.17-.455.324-.687.48-.064.043-.14.068-.205.107-.356.214-.75.177-1.135.167-1.246-.034-2.42-.344-3.496-1.008-.01-.006-.022-.009-.053-.02L1.402 9.814l-.055-.027c.026.036.05.072.077.107.575.764 1.145 1.532 1.612 2.374.13.233.234.478.205.754a.751.751 0 0 1-.097.302zm17.69.309 1.123-.118c.166.4.212.83.135 1.267-.133.755-.527 1.33-1.18 1.706-.097.056-.128.116-.14.226-.113 1-.63 1.696-1.543 2.056-.201.079-.298.173-.369.377a2.274 2.274 0 0 1-1.372 1.422 2.09 2.09 0 0 1-1.556.002c-.076-.03-.116-.025-.166.049-.387.574-.918.908-1.595.999a2.044 2.044 0 0 1-1.489-.364c-.365-.254-.73-.506-1.104-.764l.547-.916c.383.265.756.514 1.119.777.66.478 1.569.101 1.806-.642l-.105-.076c-.856-.592-1.71-1.185-2.567-1.775-.14-.097-.226-.22-.214-.4a.416.416 0 0 1 .28-.383c.147-.06.282-.015.409.073l2.174 1.504c.399.276.803.545 1.196.831.243.177.508.195.77.119.506-.146.82-.498.946-1.025.025-.106.003-.17-.091-.234-1.586-1.092-3.169-2.188-4.752-3.284-.197-.136-.276-.306-.234-.498a.412.412 0 0 1 .616-.276c.038.023.074.05.111.075 1.607 1.112 3.217 2.22 4.818 3.34.181.128.336.132.514.048.506-.24.777-.646.812-1.217.005-.089-.026-.15-.104-.204-1.84-1.27-3.678-2.542-5.516-3.814-.301-.209-.288-.615.027-.771a.383.383 0 0 1 .412.038l.886.613c1.527 1.055 3.055 2.108 4.578 3.169.115.08.2.078.316.022.69-.33.985-1.242.523-1.914-.009-.013-.015-.028-.02-.038zm-10.315 3.56c.81.102 1.326.972 1.002 1.708-.084.19-.205.365-.313.544-.222.366-.425.746-.673 1.092-.348.485-1.027.58-1.512.244-.858-.594-1.66-1.262-2.44-1.96-.906-.813-1.808-1.634-2.711-2.452-.247-.224-.46-.475-.576-.795-.115-.314-.107-.622.075-.913.22-.353.441-.705.657-1.06.294-.483.973-.684 1.52-.444.296.13.492.318.691.674.27-.247.583-.344.928-.327.258.013.497.105.702.268.412.329.667.889.392 1.56.589-.21 1.114-.12 1.52.37.411.496.406 1.033.036 1.6.248-.107.47-.138.702-.109zm14.685-6.942c.064.1.027.166-.022.244-.48.754-1.133 1.296-1.924 1.672a6.502 6.502 0 0 1-1.42.479c-.253.028-.505.06-.758.081a.294.294 0 0 1-.167-.042c-.597-.364-1.192-.733-1.788-1.1l-1.788-1.098c-.516-.317-1.031-.636-1.547-.954l-1.8-1.103c-.173-.106-.343-.219-.52-.318a.2.2 0 0 0-.163-.003c-.702.338-1.392.707-2.106 1.015-.814.351-1.657.433-2.5.076-.433-.183-.771-.49-1.05-.87-.248-.338-.045-.778.235-.924.982-.514 1.916-1.112 2.857-1.696.343-.213.68-.436 1.028-.637A3.07 3.07 0 0 1 12.89 4.7a.636.636 0 0 1 .19.01c1.463.246 2.925.496 4.388.74a.394.394 0 0 0 .228-.038 479.7 479.7 0 0 0 2.74-1.397c.07-.036.117-.045.186.018.54.49.995 1.055 1.44 1.632 1.13 1.47 2.146 3.02 3.143 4.586z" fill="#FFB45C"></path></g><defs><clipPath id="a"><path fill="#fff" d="M0 0h25v25H0z"></path></clipPath></defs></svg>