<svg width="25" height="25" viewBox="0 0 25 25" fill="none" xmlns="http://www.w3.org/2000/svg"><path fill-rule="evenodd" clip-rule="evenodd" d="M2 3.5h21.385a1.002 1.002 0 0 1 .944 1.334L23.683 6.7a1 1 0 0 1-.944.674H2.641a1 1 0 0 1-.945-.676l-.641-1.865A1.005 1.005 0 0 1 2 3.5zm3.522 7.16h14.34a1.002 1.002 0 0 1 .936 1.357l-.696 1.865a1 1 0 0 1-.935.651H6.18a1 1 0 0 1-.941-.668L4.579 12a1.005 1.005 0 0 1 .943-1.34zm4.452 7.181h5.437a1.002 1.002 0 0 1 .957 1.293l-.557 1.865a1 1 0 0 1-.957.715h-4.263a1 1 0 0 1-.948-.687l-.617-1.865a1.005 1.005 0 0 1 .948-1.32z" fill="#409EEF"></path></svg>