 <svg width="25" height="25" viewBox="0 0 25 25" fill="none" xmlns="http://www.w3.org/2000/svg"><path fill-rule="evenodd" clip-rule="evenodd" d="M21.877 6.46a1.79 1.79 0 0 1 1.802 1.78v11.496a1.79 1.79 0 0 1-1.802 1.78H3.302a1.79 1.79 0 0 1-1.802-1.78V8.24c0-.982.807-1.779 1.802-1.779h18.575zM8.072 9.623c-1.056-.165-.815 1.859-.815 1.859l.229.523c-.41.223-.188.488-.133.792l.01.093c.023.505.39.4.39.4.022.833.51.942.51.942l.038.246c.033.245-.004.188-.004.188l-.434.044c.006.12-.006.238-.034.355-.512.191-.621.304-1.128.49l-.455.175c-.833.336-1.621.755-1.782 1.29l-.75 2.588H15.19c0-.659-.877-2.896-.877-2.896 0-.407-.632-.872-1.878-1.143a4.649 4.649 0 0 1-1.188-.455c-.079-.038-.068-.394-.068-.394l-.401-.052-.034-.455c.48-.136.43-.936.43-.936.213.1.375-.18.452-.357l.051-.133c.36-.88-.18-.827-.18-.827a4.67 4.67 0 0 0 0-1.62c-.24-1.782-3.853-1.298-3.425-.717zm12.141 3.567h-4.159a.69.69 0 0 0-.681.56l-.012.124v.995c0 .336.246.615.569.673l.125.011h4.158c.34 0 .623-.242.682-.561l.011-.123v-.995a.689.689 0 0 0-.693-.684zm0-3.993h-4.159a.69.69 0 0 0-.681.561l-.012.123v.995c0 .336.246.615.569.673l.125.011h4.158c.34 0 .623-.242.682-.561l.011-.123V9.88a.689.689 0 0 0-.693-.684zm.344-5.447c.851 0 1.565.583 1.753 1.367H2.87A1.798 1.798 0 0 1 4.622 3.75h15.934z" fill="#66D74A"></path></svg>