 <svg width="25" height="25" viewBox="0 0 25 25" fill="none" xmlns="http://www.w3.org/2000/svg"><path d="m5.164 2.245.672 3.075 18.252-.033c.28.002.545.14.716.372.174.234.236.537.171.826l-1.711 10.068c-.098.435-.465.743-.886.745H7.394c-.421-.002-.788-.31-.886-.745L3.545 3.443H.97a.971.971 0 1 1 0-1.943h3.307c.422.003.787.31.886.745zM10.047 23.318c-1.281 0-2.321-1.102-2.321-2.46 0-1.359 1.04-2.46 2.321-2.46 1.283 0 2.323 1.1 2.323 2.46 0 1.358-1.04 2.46-2.323 2.46zM19.658 23.318c-1.282 0-2.321-1.102-2.321-2.46 0-1.359 1.04-2.46 2.321-2.46 1.283 0 2.323 1.1 2.323 2.46 0 1.358-1.04 2.46-2.323 2.46z" fill="#F36DAB"></path></svg>